<svg width="36" height="36" viewBox="0 0 36 36" fill="none" xmlns="http://www.w3.org/2000/svg">
<path d="M18 19.5V31.5L7.5 24V12L18 4.5L28.5 12L18 19.5Z" fill="#7E869E" fill-opacity="0.25"/>
<path d="M18 31.5V19.5M18 31.5L8.33752 24.5982C7.92695 24.305 7.72166 24.1583 7.61083 23.943C7.5 23.7276 7.5 23.4753 7.5 22.9708V12M18 31.5L27.6625 24.5982C28.073 24.305 28.2783 24.1583 28.3892 23.943C28.5 23.7276 28.5 23.4753 28.5 22.9708V12M18 19.5L7.5 12M18 19.5L28.5 12M7.5 12L16.8375 5.33034C17.3989 4.92938 17.6795 4.7289 18 4.7289C18.3205 4.7289 18.6011 4.92938 19.1625 5.33034L28.5 12" stroke="white" stroke-width="2" stroke-linejoin="round"/>
</svg>
