<svg width="80" height="84" viewBox="0 0 80 84" fill="none" xmlns="http://www.w3.org/2000/svg">
<foreignObject x="-14" y="-15" width="104" height="104"><div xmlns="http://www.w3.org/1999/xhtml" style="backdrop-filter:blur(15px);clip-path:url(#bgblur_0_303_1280_clip_path);height:100%;width:100%"></div></foreignObject><g filter="url(#filter0_d_303_1280)" data-figma-bg-blur-radius="30">
<rect x="16" y="15" width="44" height="44" rx="16" fill="black" fill-opacity="0.6" shape-rendering="crispEdges"/>
<path d="M31.125 37.2441C31.125 37.0579 31.1572 36.8861 31.2217 36.7285C31.2933 36.571 31.4007 36.4206 31.5439 36.2773L39.9121 28.0918C40.1556 27.8555 40.4492 27.7373 40.793 27.7373C41.0293 27.7373 41.2406 27.7946 41.4268 27.9092C41.6201 28.0166 41.7741 28.1634 41.8887 28.3496C42.0033 28.5358 42.0605 28.7471 42.0605 28.9834C42.0605 29.32 41.9281 29.6208 41.6631 29.8857L34.1221 37.2441L41.6631 44.6025C41.9281 44.8675 42.0605 45.1719 42.0605 45.5156C42.0605 45.7448 42.0033 45.9525 41.8887 46.1387C41.7741 46.332 41.6201 46.4824 41.4268 46.5898C41.2406 46.7044 41.0293 46.7617 40.793 46.7617C40.4492 46.7617 40.1556 46.64 39.9121 46.3965L31.5439 38.2109C31.4007 38.0677 31.2933 37.9173 31.2217 37.7598C31.1572 37.6022 31.125 37.4303 31.125 37.2441Z" fill="white" fill-opacity="0.6"/>
</g>
<defs>
<filter id="filter0_d_303_1280" x="-14" y="-15" width="104" height="104" filterUnits="userSpaceOnUse" color-interpolation-filters="sRGB">
<feFlood flood-opacity="0" result="BackgroundImageFix"/>
<feColorMatrix in="SourceAlpha" type="matrix" values="0 0 0 0 0 0 0 0 0 0 0 0 0 0 0 0 0 0 127 0" result="hardAlpha"/>
<feOffset dy="5"/>
<feGaussianBlur stdDeviation="10"/>
<feComposite in2="hardAlpha" operator="out"/>
<feColorMatrix type="matrix" values="0 0 0 0 1 0 0 0 0 1 0 0 0 0 1 0 0 0 0.08 0"/>
<feBlend mode="normal" in2="BackgroundImageFix" result="effect1_dropShadow_303_1280"/>
<feBlend mode="normal" in="SourceGraphic" in2="effect1_dropShadow_303_1280" result="shape"/>
</filter>
<clipPath id="bgblur_0_303_1280_clip_path" transform="translate(14 15)"><rect x="16" y="15" width="44" height="44" rx="16"/>
</clipPath></defs>
</svg>
