<svg width="35" height="35" viewBox="0 0 35 35" fill="none" xmlns="http://www.w3.org/2000/svg">
<path d="M26.5742 6.81641L27.1298 5.98494L27.1298 5.98494L26.5742 6.81641ZM28.1836 8.42578L29.0151 7.87021L29.0151 7.87021L28.1836 8.42578ZM29.167 16.042H30.167H29.167ZM28.1836 23.6572L29.0151 24.2128L29.0151 24.2127L28.1836 23.6572ZM26.5742 25.2666L27.1298 26.0981L27.1298 26.0981L26.5742 25.2666ZM20.417 26.2471L20.4126 25.2471C19.8621 25.2495 19.417 25.6965 19.417 26.2471H20.417ZM20.417 26.25L21.3114 26.6972C21.3808 26.5584 21.417 26.4052 21.417 26.25H20.417ZM18.3945 30.2949L19.2888 30.7424L19.289 30.7421L18.3945 30.2949ZM16.6055 30.2949L15.711 30.7421L15.7112 30.7424L16.6055 30.2949ZM14.583 26.25H13.583C13.583 26.4052 13.6192 26.5584 13.6886 26.6972L14.583 26.25ZM14.583 26.2471H15.583C15.583 25.6965 15.1379 25.2495 14.5874 25.2471L14.583 26.2471ZM8.42578 25.2666L7.87018 26.0981L7.87021 26.0981L8.42578 25.2666ZM6.81641 23.6572L5.98491 24.2127L5.98494 24.2128L6.81641 23.6572ZM5.83301 16.042H4.83301H5.83301ZM6.81641 8.42578L5.98494 7.87021L5.98494 7.87021L6.81641 8.42578ZM8.42578 6.81641L7.87021 5.98494L7.87021 5.98494L8.42578 6.81641ZM18.958 5.83301V6.83301C21.027 6.83301 22.5035 6.83429 23.6492 6.95091C24.7783 7.06582 25.4747 7.2844 26.0186 7.64788L26.5742 6.81641L27.1298 5.98494C26.2025 5.36532 25.1389 5.0922 23.8518 4.96119C22.5813 4.83188 20.9854 4.83301 18.958 4.83301V5.83301ZM26.5742 6.81641L26.0186 7.64787C26.5464 8.0005 26.9995 8.45362 27.3521 8.98136L28.1836 8.42578L29.0151 7.87021C28.5165 7.1241 27.8759 6.48348 27.1298 5.98494L26.5742 6.81641ZM28.1836 8.42578L27.3521 8.98135C27.7156 9.52533 27.9342 10.2217 28.0491 11.3508C28.1657 12.4965 28.167 13.973 28.167 16.042H29.167H30.167C30.167 14.0146 30.1681 12.4187 30.0388 11.1482C29.9078 9.86108 29.6347 8.79754 29.0151 7.87021L28.1836 8.42578ZM29.167 16.042H28.167C28.167 18.1107 28.1657 19.5871 28.049 20.7326C27.9341 21.8614 27.7155 22.5577 27.3521 23.1017L28.1836 23.6572L29.0151 24.2127C29.6346 23.2855 29.9077 22.2222 30.0388 20.9352C30.1681 19.6649 30.167 18.0692 30.167 16.042H29.167ZM28.1836 23.6572L27.3521 23.1017C26.9995 23.6293 26.5463 24.0825 26.0186 24.4352L26.5742 25.2666L27.1298 26.0981C27.8758 25.5995 28.5165 24.9589 29.0151 24.2128L28.1836 23.6572ZM26.5742 25.2666L26.0186 24.4351C25.5434 24.7527 24.9514 24.9596 24.0568 25.0831C23.1461 25.2089 21.9907 25.2402 20.4126 25.2471L20.417 26.2471L20.4214 27.2471C21.9897 27.2402 23.2703 27.2107 24.3303 27.0643C25.4064 26.9158 26.3197 26.6393 27.1298 26.0981L26.5742 25.2666ZM20.417 26.2471H19.417V26.25H20.417H21.417V26.2471H20.417ZM20.417 26.25L19.5226 25.8028L17.5001 29.8477L18.3945 30.2949L19.289 30.7421L21.3114 26.6972L20.417 26.25ZM18.3945 30.2949L17.5002 29.8474H17.4998L16.6055 30.2949L15.7112 30.7424C16.4484 32.2157 18.5516 32.2157 19.2888 30.7424L18.3945 30.2949ZM16.6055 30.2949L17.4999 29.8477L15.4774 25.8028L14.583 26.25L13.6886 26.6972L15.711 30.7421L16.6055 30.2949ZM14.583 26.25H15.583V26.2471H14.583H13.583V26.25H14.583ZM14.583 26.2471L14.5874 25.2471C13.0093 25.2402 11.8539 25.2089 10.9432 25.0831C10.0486 24.9596 9.45657 24.7527 8.98135 24.4351L8.42578 25.2666L7.87021 26.0981C8.68026 26.6393 9.59361 26.9158 10.6697 27.0643C11.7297 27.2107 13.0103 27.2402 14.5786 27.2471L14.583 26.2471ZM8.42578 25.2666L8.98138 24.4352C8.45366 24.0825 8.00045 23.6293 7.64788 23.1017L6.81641 23.6572L5.98494 24.2128C6.48346 24.9589 7.12417 25.5995 7.87018 26.0981L8.42578 25.2666ZM6.81641 23.6572L7.64791 23.1017C7.28446 22.5577 7.06589 21.8614 6.95096 20.7326C6.83433 19.5871 6.83301 18.1107 6.83301 16.042H5.83301H4.83301C4.83301 18.0692 4.83191 19.6649 4.96125 20.9352C5.09228 22.2222 5.36541 23.2855 5.98491 24.2127L6.81641 23.6572ZM5.83301 16.042H6.83301C6.83301 13.973 6.83429 12.4965 6.95091 11.3508C7.06582 10.2217 7.2844 9.52533 7.64788 8.98135L6.81641 8.42578L5.98494 7.87021C5.36532 8.79754 5.0922 9.86108 4.96119 11.1482C4.83188 12.4187 4.83301 14.0146 4.83301 16.042H5.83301ZM6.81641 8.42578L7.64787 8.98136C8.0005 8.45362 8.45362 8.0005 8.98136 7.64787L8.42578 6.81641L7.87021 5.98494C7.1241 6.48348 6.48348 7.1241 5.98494 7.87021L6.81641 8.42578ZM8.42578 6.81641L8.98135 7.64788C9.52533 7.2844 10.2217 7.06582 11.3508 6.95091C12.4965 6.83429 13.973 6.83301 16.042 6.83301V5.83301V4.83301C14.0146 4.83301 12.4187 4.83188 11.1482 4.96119C9.86108 5.0922 8.79754 5.36532 7.87021 5.98494L8.42578 6.81641ZM16.042 5.83301V6.83301H18.958V5.83301V4.83301H16.042V5.83301Z" fill="white"/>
<circle cx="23.3333" cy="16.0413" r="1.45833" fill="white"/>
<circle cx="17.4998" cy="16.0413" r="1.45833" fill="white"/>
<circle cx="11.6668" cy="16.0413" r="1.45833" fill="white"/>
</svg>
