<svg width="35" height="35" viewBox="0 0 35 35" fill="none" xmlns="http://www.w3.org/2000/svg">
<path d="M13.854 24.632V19.118C13.854 18.3747 14.6363 17.8912 15.3012 18.2236L20.8151 20.9806C21.5522 21.3491 21.5522 22.4009 20.8152 22.7694L15.3012 25.5264C14.6363 25.8588 13.854 25.3753 13.854 24.632Z" stroke="white" stroke-width="2"/>
<path d="M18.2293 5.10449H10.021C8.91643 5.10449 8.021 5.99992 8.021 7.10449V12.3962M18.2293 5.10449H19.2734C19.5387 5.10449 19.793 5.20985 19.9806 5.39739L26.6864 12.1033C26.874 12.2908 26.9793 12.5452 26.9793 12.8104V13.8545M18.2293 5.10449V11.8545C18.2293 12.9591 19.1248 13.8545 20.2293 13.8545H26.9793M26.9793 13.8545V27.8962C26.9793 29.0007 26.0839 29.8962 24.9793 29.8962H10.021C8.91643 29.8962 8.021 29.0007 8.021 27.8962V16.7712" stroke="white" stroke-width="2" stroke-linecap="round"/>
</svg>
